<mxfile host="65bd71144e" pages="1">
    <diagram id="azZ1bFGg1ElHCUa85jIB" name="第 1 页">
        <mxGraphModel dx="524" dy="705" grid="0" gridSize="10" guides="1" tooltips="1" connect="1" arrows="1" fold="1" page="0" pageScale="1" pageWidth="850" pageHeight="1100" math="0" shadow="1">
            <root>
                <mxCell id="0"/>
                <mxCell id="1" parent="0"/>
                <mxCell id="115" value="" style="rounded=0;whiteSpace=wrap;html=1;dashed=1;fillColor=none;" parent="1" vertex="1">
                    <mxGeometry x="200" y="-60" width="810" height="861" as="geometry"/>
                </mxCell>
                <mxCell id="2" value="Hardware(PC&lt;font color=&quot;#808080&quot;&gt;, Xbox One, PS4, Quest, Switch, mobile device, etc.&lt;/font&gt;&lt;font color=&quot;#4d4d4d&quot;&gt; &lt;/font&gt;)" style="rounded=0;whiteSpace=wrap;html=1;fillColor=#999999;" parent="1" vertex="1">
                    <mxGeometry x="18" y="984" width="923" height="40" as="geometry"/>
                </mxCell>
                <mxCell id="5" value="OS(Windows, Linux, &lt;font color=&quot;#999999&quot;&gt;MacOS, Android, IOS, etc.&amp;nbsp;&lt;/font&gt;)" style="rounded=0;whiteSpace=wrap;html=1;fillColor=#CCCCCC;" parent="1" vertex="1">
                    <mxGeometry x="18" y="904" width="923" height="40" as="geometry"/>
                </mxCell>
                <mxCell id="6" value="Drivers" style="rounded=0;whiteSpace=wrap;html=1;fillColor=#B3B3B3;" parent="1" vertex="1">
                    <mxGeometry x="18" y="944" width="923" height="40" as="geometry"/>
                </mxCell>
                <mxCell id="7" value="&lt;b&gt;Modules&lt;/b&gt;&lt;br&gt;&lt;br&gt;(independent libs)" style="rounded=0;whiteSpace=wrap;html=1;fillColor=#FFFFFF;" parent="1" vertex="1">
                    <mxGeometry x="843" y="-149" width="74" height="947" as="geometry"/>
                </mxCell>
                <mxCell id="11" value="ThirdParty" style="rounded=0;whiteSpace=wrap;html=1;fillColor=#FFFFFF;" parent="1" vertex="1">
                    <mxGeometry x="18" y="810" width="922" height="45.5" as="geometry"/>
                </mxCell>
                <mxCell id="14" value="" style="rounded=0;whiteSpace=wrap;html=1;fillColor=#E6E6E6;" parent="1" vertex="1">
                    <mxGeometry x="18" y="670" width="802" height="120" as="geometry"/>
                </mxCell>
                <mxCell id="16" value="" style="rounded=0;whiteSpace=wrap;html=1;fillColor=#E6E6E6;" parent="1" vertex="1">
                    <mxGeometry x="208" y="498" width="612" height="80" as="geometry"/>
                </mxCell>
                <mxCell id="22" value="" style="rounded=0;whiteSpace=wrap;html=1;fillColor=#E6E6E6;" parent="1" vertex="1">
                    <mxGeometry x="20" y="-60" width="170" height="638" as="geometry"/>
                </mxCell>
                <mxCell id="23" value="&lt;b&gt;Editor&lt;/b&gt;" style="rounded=0;whiteSpace=wrap;html=1;fillColor=#FFFFFF;" parent="1" vertex="1">
                    <mxGeometry x="21" y="-148" width="809" height="78" as="geometry"/>
                </mxCell>
                <mxCell id="27" value="&lt;b&gt;Shaders&lt;/b&gt;" style="rounded=0;whiteSpace=wrap;html=1;fillColor=#FFFFFF;" parent="1" vertex="1">
                    <mxGeometry x="19" y="585" width="171" height="80" as="geometry"/>
                </mxCell>
                <mxCell id="31" value="Memory&lt;span style=&quot;color: rgba(0 , 0 , 0 , 0) ; font-family: monospace ; font-size: 0px ; white-space: nowrap&quot;&gt;%3CmxGraphModel%3E%3Croot%3E%3CmxCell%20id%3D%220%22%2F%3E%3CmxCell%20id%3D%221%22%20parent%3D%220%22%2F%3E%3CmxCell%20id%3D%222%22%20value%3D%22%22%20style%3D%22rounded%3D0%3BwhiteSpace%3Dwrap%3Bhtml%3D1%3BfillColor%3D%23FFFFFF%3B%22%20vertex%3D%221%22%20parent%3D%221%22%3E%3CmxGeometry%20x%3D%22220%22%20y%3D%22700%22%20width%3D%22130%22%20height%3D%2240%22%20as%3D%22geometry%22%2F%3E%3C%2FmxCell%3E%3C%2Froot%3E%3C%2FmxGraphModel%3E&lt;/span&gt;" style="rounded=0;whiteSpace=wrap;html=1;fillColor=#FFFFFF;" parent="1" vertex="1">
                    <mxGeometry x="30" y="744" width="90" height="40" as="geometry"/>
                </mxCell>
                <mxCell id="32" value="Thread" style="rounded=0;whiteSpace=wrap;html=1;fillColor=#FFFFFF;" parent="1" vertex="1">
                    <mxGeometry x="130.5" y="744" width="90" height="40" as="geometry"/>
                </mxCell>
                <mxCell id="33" value="Network" style="rounded=0;whiteSpace=wrap;html=1;fillColor=#FFFFFF;" parent="1" vertex="1">
                    <mxGeometry x="230.5" y="744" width="90" height="40" as="geometry"/>
                </mxCell>
                <mxCell id="34" value="Window" style="rounded=0;whiteSpace=wrap;html=1;fillColor=#FFFFFF;" parent="1" vertex="1">
                    <mxGeometry x="530.5" y="744" width="90" height="40" as="geometry"/>
                </mxCell>
                <mxCell id="35" value="IO" style="rounded=0;whiteSpace=wrap;html=1;fillColor=#FFFFFF;" parent="1" vertex="1">
                    <mxGeometry x="330.5" y="744" width="90" height="40" as="geometry"/>
                </mxCell>
                <mxCell id="36" value="Log" style="rounded=0;whiteSpace=wrap;html=1;fillColor=#FFFFFF;" parent="1" vertex="1">
                    <mxGeometry x="430.5" y="744" width="90" height="40" as="geometry"/>
                </mxCell>
                <mxCell id="38" value="Reflection" style="rounded=0;whiteSpace=wrap;html=1;fillColor=#FFFFFF;" parent="1" vertex="1">
                    <mxGeometry x="30" y="697" width="90" height="40" as="geometry"/>
                </mxCell>
                <mxCell id="39" value="Math" style="rounded=0;whiteSpace=wrap;html=1;fillColor=#FFFFFF;" parent="1" vertex="1">
                    <mxGeometry x="130.5" y="697" width="90" height="40" as="geometry"/>
                </mxCell>
                <mxCell id="40" value="etc" style="rounded=0;whiteSpace=wrap;html=1;fillColor=#FFFFFF;" parent="1" vertex="1">
                    <mxGeometry x="230.5" y="697" width="90" height="40" as="geometry"/>
                </mxCell>
                <mxCell id="41" value="--" style="rounded=0;whiteSpace=wrap;html=1;fillColor=#FFFFFF;" parent="1" vertex="1">
                    <mxGeometry x="530.5" y="697" width="90" height="40" as="geometry"/>
                </mxCell>
                <mxCell id="42" value="--" style="rounded=0;whiteSpace=wrap;html=1;fillColor=#FFFFFF;" parent="1" vertex="1">
                    <mxGeometry x="330.5" y="697" width="90" height="40" as="geometry"/>
                </mxCell>
                <mxCell id="43" value="--" style="rounded=0;whiteSpace=wrap;html=1;fillColor=#FFFFFF;" parent="1" vertex="1">
                    <mxGeometry x="430.5" y="697" width="90" height="40" as="geometry"/>
                </mxCell>
                <mxCell id="46" value="&lt;b&gt;00Core&lt;/b&gt;" style="text;html=1;strokeColor=none;fillColor=none;align=center;verticalAlign=middle;whiteSpace=wrap;rounded=0;" parent="1" vertex="1">
                    <mxGeometry x="465" y="670" width="40" height="20" as="geometry"/>
                </mxCell>
                <mxCell id="47" value="Image" style="rounded=0;whiteSpace=wrap;html=1;fillColor=#FFFFFF;" parent="1" vertex="1">
                    <mxGeometry x="218" y="523" width="90" height="40" as="geometry"/>
                </mxCell>
                <mxCell id="48" value="Mesh" style="rounded=0;whiteSpace=wrap;html=1;fillColor=#FFFFFF;" parent="1" vertex="1">
                    <mxGeometry x="319" y="523" width="90" height="40" as="geometry"/>
                </mxCell>
                <mxCell id="49" value="Audio" style="rounded=0;whiteSpace=wrap;html=1;fillColor=#FFFFFF;" parent="1" vertex="1">
                    <mxGeometry x="423" y="523" width="90" height="40" as="geometry"/>
                </mxCell>
                <mxCell id="50" value="Video" style="rounded=0;whiteSpace=wrap;html=1;fillColor=#FFFFFF;" parent="1" vertex="1">
                    <mxGeometry x="522" y="523" width="90" height="40" as="geometry"/>
                </mxCell>
                <mxCell id="51" value="Material" style="rounded=0;whiteSpace=wrap;html=1;fillColor=#FFFFFF;" parent="1" vertex="1">
                    <mxGeometry x="621" y="523" width="90" height="40" as="geometry"/>
                </mxCell>
                <mxCell id="52" value="etc" style="rounded=0;whiteSpace=wrap;html=1;fillColor=#FFFFFF;" parent="1" vertex="1">
                    <mxGeometry x="722" y="523" width="90" height="40" as="geometry"/>
                </mxCell>
                <mxCell id="53" value="&lt;b&gt;01Resource&lt;/b&gt;" style="text;html=1;strokeColor=none;fillColor=none;align=center;verticalAlign=middle;whiteSpace=wrap;rounded=0;" parent="1" vertex="1">
                    <mxGeometry x="468" y="498" width="40" height="20" as="geometry"/>
                </mxCell>
                <mxCell id="54" value="" style="rounded=0;whiteSpace=wrap;html=1;fillColor=#E6E6E6;" parent="1" vertex="1">
                    <mxGeometry x="208" y="585" width="612" height="80" as="geometry"/>
                </mxCell>
                <mxCell id="55" value="Vulkan" style="rounded=0;whiteSpace=wrap;html=1;fillColor=#FFFFFF;" parent="1" vertex="1">
                    <mxGeometry x="213" y="615" width="90" height="40" as="geometry"/>
                </mxCell>
                <mxCell id="56" value="D3D12" style="rounded=0;whiteSpace=wrap;html=1;fillColor=#FFFFFF;" parent="1" vertex="1">
                    <mxGeometry x="313" y="615" width="90" height="40" as="geometry"/>
                </mxCell>
                <mxCell id="57" value="&lt;font color=&quot;#e6e6e6&quot;&gt;Metal&lt;/font&gt;" style="rounded=0;whiteSpace=wrap;html=1;fillColor=#FFFFFF;" parent="1" vertex="1">
                    <mxGeometry x="413" y="615" width="90" height="40" as="geometry"/>
                </mxCell>
                <mxCell id="58" value="&lt;font color=&quot;#e6e6e6&quot;&gt;Open GL&lt;/font&gt;" style="rounded=0;whiteSpace=wrap;html=1;fillColor=#FFFFFF;" parent="1" vertex="1">
                    <mxGeometry x="513" y="615" width="90" height="40" as="geometry"/>
                </mxCell>
                <mxCell id="59" value="&lt;font color=&quot;#e6e6e6&quot;&gt;D3D11&lt;/font&gt;" style="rounded=0;whiteSpace=wrap;html=1;fillColor=#FFFFFF;" parent="1" vertex="1">
                    <mxGeometry x="613" y="615" width="90" height="40" as="geometry"/>
                </mxCell>
                <mxCell id="60" value="&lt;font color=&quot;#e6e6e6&quot;&gt;OpenGL ES&lt;/font&gt;" style="rounded=0;whiteSpace=wrap;html=1;fillColor=#FFFFFF;" parent="1" vertex="1">
                    <mxGeometry x="713" y="615" width="90" height="40" as="geometry"/>
                </mxCell>
                <mxCell id="61" value="&lt;b&gt;02Rhi&lt;/b&gt;" style="text;html=1;strokeColor=none;fillColor=none;align=center;verticalAlign=middle;whiteSpace=wrap;rounded=0;" parent="1" vertex="1">
                    <mxGeometry x="468" y="585" width="40" height="20" as="geometry"/>
                </mxCell>
                <mxCell id="62" value="" style="rounded=0;whiteSpace=wrap;html=1;fillColor=#E6E6E6;" parent="1" vertex="1">
                    <mxGeometry x="208" y="411" width="612" height="80" as="geometry"/>
                </mxCell>
                <mxCell id="63" value="--" style="rounded=0;whiteSpace=wrap;html=1;fillColor=#FFFFFF;" parent="1" vertex="1">
                    <mxGeometry x="213" y="441" width="90" height="40" as="geometry"/>
                </mxCell>
                <mxCell id="64" value="--" style="rounded=0;whiteSpace=wrap;html=1;fillColor=#FFFFFF;" parent="1" vertex="1">
                    <mxGeometry x="313" y="441" width="90" height="40" as="geometry"/>
                </mxCell>
                <mxCell id="65" value="--" style="rounded=0;whiteSpace=wrap;html=1;fillColor=#FFFFFF;" parent="1" vertex="1">
                    <mxGeometry x="413" y="441" width="90" height="40" as="geometry"/>
                </mxCell>
                <mxCell id="66" value="--" style="rounded=0;whiteSpace=wrap;html=1;fillColor=#FFFFFF;" parent="1" vertex="1">
                    <mxGeometry x="513" y="441" width="90" height="40" as="geometry"/>
                </mxCell>
                <mxCell id="67" value="--" style="rounded=0;whiteSpace=wrap;html=1;fillColor=#FFFFFF;" parent="1" vertex="1">
                    <mxGeometry x="613" y="441" width="90" height="40" as="geometry"/>
                </mxCell>
                <mxCell id="68" value="--" style="rounded=0;whiteSpace=wrap;html=1;fillColor=#FFFFFF;" parent="1" vertex="1">
                    <mxGeometry x="713" y="441" width="90" height="40" as="geometry"/>
                </mxCell>
                <mxCell id="69" value="&lt;b&gt;03Rendergraph&lt;/b&gt;" style="text;html=1;strokeColor=none;fillColor=none;align=center;verticalAlign=middle;whiteSpace=wrap;rounded=0;" parent="1" vertex="1">
                    <mxGeometry x="468" y="411" width="40" height="20" as="geometry"/>
                </mxCell>
                <mxCell id="70" value="" style="rounded=0;whiteSpace=wrap;html=1;fillColor=#E6E6E6;" parent="1" vertex="1">
                    <mxGeometry x="208" y="323" width="612" height="80" as="geometry"/>
                </mxCell>
                <mxCell id="71" value="Forward" style="rounded=0;whiteSpace=wrap;html=1;fillColor=#FFFFFF;" parent="1" vertex="1">
                    <mxGeometry x="213" y="353" width="90" height="40" as="geometry"/>
                </mxCell>
                <mxCell id="72" value="Deferred" style="rounded=0;whiteSpace=wrap;html=1;fillColor=#FFFFFF;" parent="1" vertex="1">
                    <mxGeometry x="313" y="353" width="90" height="40" as="geometry"/>
                </mxCell>
                <mxCell id="73" value="PostProcess" style="rounded=0;whiteSpace=wrap;html=1;fillColor=#FFFFFF;" parent="1" vertex="1">
                    <mxGeometry x="413" y="353" width="90" height="40" as="geometry"/>
                </mxCell>
                <mxCell id="74" value="Shadow" style="rounded=0;whiteSpace=wrap;html=1;fillColor=#FFFFFF;" parent="1" vertex="1">
                    <mxGeometry x="513" y="353" width="90" height="40" as="geometry"/>
                </mxCell>
                <mxCell id="75" value="--" style="rounded=0;whiteSpace=wrap;html=1;fillColor=#FFFFFF;" parent="1" vertex="1">
                    <mxGeometry x="613" y="353" width="90" height="40" as="geometry"/>
                </mxCell>
                <mxCell id="76" value="--" style="rounded=0;whiteSpace=wrap;html=1;fillColor=#FFFFFF;" parent="1" vertex="1">
                    <mxGeometry x="713" y="353" width="90" height="40" as="geometry"/>
                </mxCell>
                <mxCell id="77" value="&lt;b&gt;04Pipeline&lt;/b&gt;" style="text;html=1;strokeColor=none;fillColor=none;align=center;verticalAlign=middle;whiteSpace=wrap;rounded=0;" parent="1" vertex="1">
                    <mxGeometry x="468" y="323" width="40" height="20" as="geometry"/>
                </mxCell>
                <mxCell id="78" value="" style="rounded=0;whiteSpace=wrap;html=1;fillColor=#E6E6E6;" parent="1" vertex="1">
                    <mxGeometry x="209" y="234" width="611" height="80" as="geometry"/>
                </mxCell>
                <mxCell id="79" value="Animation" style="rounded=0;whiteSpace=wrap;html=1;fillColor=#FFFFFF;" parent="1" vertex="1">
                    <mxGeometry x="214" y="264" width="90" height="40" as="geometry"/>
                </mxCell>
                <mxCell id="80" value="Physics" style="rounded=0;whiteSpace=wrap;html=1;fillColor=#FFFFFF;" parent="1" vertex="1">
                    <mxGeometry x="314" y="264" width="90" height="40" as="geometry"/>
                </mxCell>
                <mxCell id="81" value="AI" style="rounded=0;whiteSpace=wrap;html=1;fillColor=#FFFFFF;" parent="1" vertex="1">
                    <mxGeometry x="414" y="264" width="90" height="40" as="geometry"/>
                </mxCell>
                <mxCell id="82" value="--" style="rounded=0;whiteSpace=wrap;html=1;fillColor=#FFFFFF;" parent="1" vertex="1">
                    <mxGeometry x="514" y="264" width="90" height="40" as="geometry"/>
                </mxCell>
                <mxCell id="83" value="--" style="rounded=0;whiteSpace=wrap;html=1;fillColor=#FFFFFF;" parent="1" vertex="1">
                    <mxGeometry x="614" y="264" width="90" height="40" as="geometry"/>
                </mxCell>
                <mxCell id="84" value="--" style="rounded=0;whiteSpace=wrap;html=1;fillColor=#FFFFFF;" parent="1" vertex="1">
                    <mxGeometry x="714" y="264" width="90" height="40" as="geometry"/>
                </mxCell>
                <mxCell id="85" value="&lt;b&gt;05System&lt;/b&gt;" style="text;html=1;strokeColor=none;fillColor=none;align=center;verticalAlign=middle;whiteSpace=wrap;rounded=0;" parent="1" vertex="1">
                    <mxGeometry x="469" y="234" width="40" height="20" as="geometry"/>
                </mxCell>
                <mxCell id="86" value="" style="rounded=0;whiteSpace=wrap;html=1;fillColor=#E6E6E6;" parent="1" vertex="1">
                    <mxGeometry x="210" y="145" width="610" height="80" as="geometry"/>
                </mxCell>
                <mxCell id="87" value="Camera" style="rounded=0;whiteSpace=wrap;html=1;fillColor=#FFFFFF;" parent="1" vertex="1">
                    <mxGeometry x="215" y="175" width="90" height="40" as="geometry"/>
                </mxCell>
                <mxCell id="88" value="Lighting" style="rounded=0;whiteSpace=wrap;html=1;fillColor=#FFFFFF;" parent="1" vertex="1">
                    <mxGeometry x="315" y="175" width="90" height="40" as="geometry"/>
                </mxCell>
                <mxCell id="89" value="Lod" style="rounded=0;whiteSpace=wrap;html=1;fillColor=#FFFFFF;" parent="1" vertex="1">
                    <mxGeometry x="415" y="175" width="90" height="40" as="geometry"/>
                </mxCell>
                <mxCell id="90" value="Culling" style="rounded=0;whiteSpace=wrap;html=1;fillColor=#FFFFFF;" parent="1" vertex="1">
                    <mxGeometry x="515" y="175" width="90" height="40" as="geometry"/>
                </mxCell>
                <mxCell id="91" value="--" style="rounded=0;whiteSpace=wrap;html=1;fillColor=#FFFFFF;" parent="1" vertex="1">
                    <mxGeometry x="615" y="175" width="90" height="40" as="geometry"/>
                </mxCell>
                <mxCell id="92" value="--" style="rounded=0;whiteSpace=wrap;html=1;fillColor=#FFFFFF;" parent="1" vertex="1">
                    <mxGeometry x="715" y="175" width="90" height="40" as="geometry"/>
                </mxCell>
                <mxCell id="93" value="&lt;b&gt;06Scene&lt;/b&gt;" style="text;html=1;strokeColor=none;fillColor=none;align=center;verticalAlign=middle;whiteSpace=wrap;rounded=0;" parent="1" vertex="1">
                    <mxGeometry x="470" y="145" width="40" height="20" as="geometry"/>
                </mxCell>
                <mxCell id="94" value="" style="rounded=0;whiteSpace=wrap;html=1;fillColor=#E6E6E6;" parent="1" vertex="1">
                    <mxGeometry x="210" y="57" width="610" height="80" as="geometry"/>
                </mxCell>
                <mxCell id="95" value="--" style="rounded=0;whiteSpace=wrap;html=1;fillColor=#FFFFFF;" parent="1" vertex="1">
                    <mxGeometry x="215" y="87" width="90" height="40" as="geometry"/>
                </mxCell>
                <mxCell id="96" value="--" style="rounded=0;whiteSpace=wrap;html=1;fillColor=#FFFFFF;" parent="1" vertex="1">
                    <mxGeometry x="315" y="87" width="90" height="40" as="geometry"/>
                </mxCell>
                <mxCell id="97" value="--" style="rounded=0;whiteSpace=wrap;html=1;fillColor=#FFFFFF;" parent="1" vertex="1">
                    <mxGeometry x="415" y="87" width="90" height="40" as="geometry"/>
                </mxCell>
                <mxCell id="98" value="--" style="rounded=0;whiteSpace=wrap;html=1;fillColor=#FFFFFF;" parent="1" vertex="1">
                    <mxGeometry x="515" y="87" width="90" height="40" as="geometry"/>
                </mxCell>
                <mxCell id="99" value="--" style="rounded=0;whiteSpace=wrap;html=1;fillColor=#FFFFFF;" parent="1" vertex="1">
                    <mxGeometry x="615" y="87" width="90" height="40" as="geometry"/>
                </mxCell>
                <mxCell id="100" value="--" style="rounded=0;whiteSpace=wrap;html=1;fillColor=#FFFFFF;" parent="1" vertex="1">
                    <mxGeometry x="715" y="87" width="90" height="40" as="geometry"/>
                </mxCell>
                <mxCell id="101" value="&lt;b&gt;07Gameplay&lt;/b&gt;" style="text;html=1;strokeColor=none;fillColor=none;align=center;verticalAlign=middle;whiteSpace=wrap;rounded=0;" parent="1" vertex="1">
                    <mxGeometry x="470" y="57" width="40" height="20" as="geometry"/>
                </mxCell>
                <mxCell id="102" value="" style="rounded=0;whiteSpace=wrap;html=1;fillColor=#E6E6E6;" parent="1" vertex="1">
                    <mxGeometry x="209" y="-31" width="611" height="80" as="geometry"/>
                </mxCell>
                <mxCell id="103" value="--" style="rounded=0;whiteSpace=wrap;html=1;fillColor=#FFFFFF;" parent="1" vertex="1">
                    <mxGeometry x="214" y="-1" width="90" height="40" as="geometry"/>
                </mxCell>
                <mxCell id="104" value="--" style="rounded=0;whiteSpace=wrap;html=1;fillColor=#FFFFFF;" parent="1" vertex="1">
                    <mxGeometry x="314" y="-1" width="90" height="40" as="geometry"/>
                </mxCell>
                <mxCell id="105" value="--" style="rounded=0;whiteSpace=wrap;html=1;fillColor=#FFFFFF;" parent="1" vertex="1">
                    <mxGeometry x="414" y="-1" width="90" height="40" as="geometry"/>
                </mxCell>
                <mxCell id="106" value="--" style="rounded=0;whiteSpace=wrap;html=1;fillColor=#FFFFFF;" parent="1" vertex="1">
                    <mxGeometry x="514" y="-1" width="90" height="40" as="geometry"/>
                </mxCell>
                <mxCell id="107" value="--" style="rounded=0;whiteSpace=wrap;html=1;fillColor=#FFFFFF;" parent="1" vertex="1">
                    <mxGeometry x="614" y="-1" width="90" height="40" as="geometry"/>
                </mxCell>
                <mxCell id="108" value="--" style="rounded=0;whiteSpace=wrap;html=1;fillColor=#FFFFFF;" parent="1" vertex="1">
                    <mxGeometry x="714" y="-1" width="90" height="40" as="geometry"/>
                </mxCell>
                <mxCell id="109" value="&lt;b&gt;08App&lt;/b&gt;" style="text;html=1;strokeColor=none;fillColor=none;align=center;verticalAlign=middle;whiteSpace=wrap;rounded=0;" parent="1" vertex="1">
                    <mxGeometry x="469" y="-31" width="40" height="20" as="geometry"/>
                </mxCell>
                <mxCell id="110" value="Database" style="rounded=0;whiteSpace=wrap;html=1;fillColor=#FFFFFF;" parent="1" vertex="1">
                    <mxGeometry x="35.5" y="477" width="140" height="62" as="geometry"/>
                </mxCell>
                <mxCell id="111" value="Loader" style="rounded=0;whiteSpace=wrap;html=1;fillColor=#FFFFFF;" parent="1" vertex="1">
                    <mxGeometry x="35.5" y="409" width="140" height="62" as="geometry"/>
                </mxCell>
                <mxCell id="112" value="Parser" style="rounded=0;whiteSpace=wrap;html=1;fillColor=#FFFFFF;" parent="1" vertex="1">
                    <mxGeometry x="35.5" y="339" width="140" height="62" as="geometry"/>
                </mxCell>
                <mxCell id="113" value="Exporter" style="rounded=0;whiteSpace=wrap;html=1;fillColor=#FFFFFF;" parent="1" vertex="1">
                    <mxGeometry x="35.5" y="268" width="140" height="62" as="geometry"/>
                </mxCell>
                <mxCell id="114" value="Converter" style="rounded=0;whiteSpace=wrap;html=1;fillColor=#FFFFFF;" parent="1" vertex="1">
                    <mxGeometry x="35.5" y="197" width="140" height="62" as="geometry"/>
                </mxCell>
                <mxCell id="116" value="&lt;b&gt;&lt;font style=&quot;font-size: 14px&quot;&gt;Runtime&lt;/font&gt;&lt;/b&gt;" style="text;html=1;strokeColor=none;fillColor=none;align=center;verticalAlign=middle;whiteSpace=wrap;rounded=0;shadow=1;" parent="1" vertex="1">
                    <mxGeometry x="228" y="-56" width="40" height="20" as="geometry"/>
                </mxCell>
                <mxCell id="120" value="&lt;font style=&quot;font-size: 24px&quot;&gt;&lt;b&gt;Engine Architecture&lt;/b&gt;&lt;/font&gt;" style="text;html=1;resizable=0;points=[];autosize=1;align=left;verticalAlign=top;spacingTop=-4;" parent="1" vertex="1">
                    <mxGeometry x="372" y="-188" width="240" height="20" as="geometry"/>
                </mxCell>
                <mxCell id="121" value="Platfom Independence Layer(STL)" style="rounded=0;whiteSpace=wrap;html=1;fillColor=#E6E6E6;" parent="1" vertex="1">
                    <mxGeometry x="18" y="864" width="923" height="40" as="geometry"/>
                </mxCell>
                <mxCell id="122" value="--" style="rounded=0;whiteSpace=wrap;html=1;fillColor=#FFFFFF;" parent="1" vertex="1">
                    <mxGeometry x="722.5" y="697" width="90" height="40" as="geometry"/>
                </mxCell>
                <mxCell id="123" value="--" style="rounded=0;whiteSpace=wrap;html=1;fillColor=#FFFFFF;" parent="1" vertex="1">
                    <mxGeometry x="627" y="697" width="90" height="40" as="geometry"/>
                </mxCell>
                <mxCell id="124" value="--" style="rounded=0;whiteSpace=wrap;html=1;fillColor=#FFFFFF;" parent="1" vertex="1">
                    <mxGeometry x="722.5" y="744" width="90" height="40" as="geometry"/>
                </mxCell>
                <mxCell id="125" value="--" style="rounded=0;whiteSpace=wrap;html=1;fillColor=#FFFFFF;" parent="1" vertex="1">
                    <mxGeometry x="627" y="744" width="90" height="40" as="geometry"/>
                </mxCell>
                <mxCell id="126" value="&lt;b&gt;Generated&lt;/b&gt;&lt;br&gt;&lt;br&gt;(built in code or data)" style="rounded=0;whiteSpace=wrap;html=1;fillColor=#FFFFFF;" parent="1" vertex="1">
                    <mxGeometry x="927" y="-151" width="76" height="948" as="geometry"/>
                </mxCell>
                <mxCell id="127" value="Spirv" style="rounded=0;whiteSpace=wrap;html=1;fillColor=#f5f5f5;fontColor=#333333;strokeColor=#666666;" parent="1" vertex="1">
                    <mxGeometry x="933.75" y="737" width="62.5" height="47" as="geometry"/>
                </mxCell>
                <mxCell id="128" value="DXIL" style="rounded=0;whiteSpace=wrap;html=1;fillColor=#f5f5f5;fontColor=#333333;strokeColor=#666666;" parent="1" vertex="1">
                    <mxGeometry x="933.75" y="680" width="62.5" height="47" as="geometry"/>
                </mxCell>
                <mxCell id="130" value="Reflection" style="rounded=0;whiteSpace=wrap;html=1;fillColor=#f5f5f5;fontColor=#333333;strokeColor=#666666;" parent="1" vertex="1">
                    <mxGeometry x="933.75" y="623" width="62.5" height="47" as="geometry"/>
                </mxCell>
                <mxCell id="133" value="&lt;b&gt;&lt;font style=&quot;font-size: 14px&quot;&gt;AssetSystem&lt;/font&gt;&lt;/b&gt;" style="text;html=1;strokeColor=none;fillColor=none;align=center;verticalAlign=middle;whiteSpace=wrap;rounded=0;shadow=1;" vertex="1" parent="1">
                    <mxGeometry x="84.5" y="-51" width="40" height="20" as="geometry"/>
                </mxCell>
            </root>
        </mxGraphModel>
    </diagram>
</mxfile>